<mxfile host="app.diagrams.net" modified="2023-03-08T13:27:47.687Z" agent="5.0 (Macintosh; Intel Mac OS X 10_15_7) AppleWebKit/537.36 (KHTML, like Gecko) Chrome/110.0.0.0 Safari/537.36" etag="pWjovFH6Q3tK_Co40q7K" version="21.0.2" type="github">
  <diagram name="第 1 页" id="WEtQFvLlRxjY62BpDCnX">
    <mxGraphModel dx="1174" dy="720" grid="1" gridSize="10" guides="1" tooltips="1" connect="1" arrows="1" fold="1" page="1" pageScale="1" pageWidth="827" pageHeight="1169" math="0" shadow="0">
      <root>
        <mxCell id="0" />
        <mxCell id="1" parent="0" />
        <mxCell id="BQGEHq-u3A9qDxq_hTkO-4" style="edgeStyle=orthogonalEdgeStyle;rounded=0;orthogonalLoop=1;jettySize=auto;html=1;exitX=1;exitY=0.5;exitDx=0;exitDy=0;entryX=0;entryY=0.5;entryDx=0;entryDy=0;sketch=1;curveFitting=1;jiggle=2;shadow=1;" edge="1" parent="1" source="BQGEHq-u3A9qDxq_hTkO-1" target="BQGEHq-u3A9qDxq_hTkO-2">
          <mxGeometry relative="1" as="geometry" />
        </mxCell>
        <mxCell id="BQGEHq-u3A9qDxq_hTkO-1" value="&lt;font face=&quot;Comic Sans MS&quot; style=&quot;font-size: 20px;&quot;&gt;init&lt;/font&gt;" style="rounded=1;whiteSpace=wrap;html=1;sketch=1;curveFitting=1;jiggle=2;fillColor=#dae8fc;strokeColor=#6c8ebf;" vertex="1" parent="1">
          <mxGeometry x="60" y="200" width="124" height="40" as="geometry" />
        </mxCell>
        <mxCell id="BQGEHq-u3A9qDxq_hTkO-7" style="edgeStyle=orthogonalEdgeStyle;rounded=0;orthogonalLoop=1;jettySize=auto;html=1;entryX=0.5;entryY=0;entryDx=0;entryDy=0;sketch=1;curveFitting=1;jiggle=2;shadow=1;" edge="1" parent="1" source="BQGEHq-u3A9qDxq_hTkO-2" target="BQGEHq-u3A9qDxq_hTkO-5">
          <mxGeometry relative="1" as="geometry" />
        </mxCell>
        <mxCell id="BQGEHq-u3A9qDxq_hTkO-2" value="&lt;font face=&quot;Comic Sans MS&quot; style=&quot;font-size: 20px;&quot;&gt;building&lt;/font&gt;" style="rounded=1;whiteSpace=wrap;html=1;sketch=1;curveFitting=1;jiggle=2;fillColor=#e1d5e7;strokeColor=#9673a6;shadow=0;glass=0;" vertex="1" parent="1">
          <mxGeometry x="270" y="200" width="124" height="40" as="geometry" />
        </mxCell>
        <mxCell id="BQGEHq-u3A9qDxq_hTkO-12" style="edgeStyle=orthogonalEdgeStyle;rounded=0;orthogonalLoop=1;jettySize=auto;html=1;entryX=0.5;entryY=0;entryDx=0;entryDy=0;sketch=1;curveFitting=1;jiggle=2;shadow=1;" edge="1" parent="1" source="BQGEHq-u3A9qDxq_hTkO-5" target="BQGEHq-u3A9qDxq_hTkO-9">
          <mxGeometry relative="1" as="geometry" />
        </mxCell>
        <mxCell id="BQGEHq-u3A9qDxq_hTkO-5" value="&lt;font face=&quot;Comic Sans MS&quot; style=&quot;font-size: 20px;&quot;&gt;trans&lt;/font&gt;" style="rounded=1;whiteSpace=wrap;html=1;sketch=1;curveFitting=1;jiggle=2;fillColor=#d5e8d4;strokeColor=#82b366;" vertex="1" parent="1">
          <mxGeometry x="270" y="290" width="124" height="40" as="geometry" />
        </mxCell>
        <mxCell id="BQGEHq-u3A9qDxq_hTkO-14" style="edgeStyle=orthogonalEdgeStyle;rounded=0;orthogonalLoop=1;jettySize=auto;html=1;entryX=0.5;entryY=1;entryDx=0;entryDy=0;sketch=1;curveFitting=1;jiggle=2;shadow=1;" edge="1" parent="1" source="BQGEHq-u3A9qDxq_hTkO-8" target="BQGEHq-u3A9qDxq_hTkO-10">
          <mxGeometry relative="1" as="geometry" />
        </mxCell>
        <mxCell id="BQGEHq-u3A9qDxq_hTkO-16" style="edgeStyle=orthogonalEdgeStyle;rounded=0;orthogonalLoop=1;jettySize=auto;html=1;exitX=1;exitY=0.5;exitDx=0;exitDy=0;entryX=0;entryY=0.5;entryDx=0;entryDy=0;sketch=1;curveFitting=1;jiggle=2;shadow=1;" edge="1" parent="1" source="BQGEHq-u3A9qDxq_hTkO-8" target="BQGEHq-u3A9qDxq_hTkO-11">
          <mxGeometry relative="1" as="geometry" />
        </mxCell>
        <mxCell id="BQGEHq-u3A9qDxq_hTkO-8" value="&lt;font face=&quot;Comic Sans MS&quot; style=&quot;font-size: 20px;&quot;&gt;online&lt;/font&gt;" style="rounded=1;whiteSpace=wrap;html=1;sketch=1;curveFitting=1;jiggle=2;fillColor=#f8cecc;strokeColor=#b85450;" vertex="1" parent="1">
          <mxGeometry x="460" y="380" width="124" height="40" as="geometry" />
        </mxCell>
        <mxCell id="BQGEHq-u3A9qDxq_hTkO-13" style="edgeStyle=orthogonalEdgeStyle;rounded=0;orthogonalLoop=1;jettySize=auto;html=1;entryX=0;entryY=0.5;entryDx=0;entryDy=0;sketch=1;curveFitting=1;jiggle=2;shadow=1;" edge="1" parent="1" source="BQGEHq-u3A9qDxq_hTkO-9" target="BQGEHq-u3A9qDxq_hTkO-8">
          <mxGeometry relative="1" as="geometry" />
        </mxCell>
        <mxCell id="BQGEHq-u3A9qDxq_hTkO-9" value="&lt;font face=&quot;Comic Sans MS&quot; style=&quot;font-size: 20px;&quot;&gt;loading&lt;/font&gt;" style="rounded=1;whiteSpace=wrap;html=1;sketch=1;curveFitting=1;jiggle=2;fillColor=#fff2cc;strokeColor=#d6b656;" vertex="1" parent="1">
          <mxGeometry x="270" y="380" width="124" height="40" as="geometry" />
        </mxCell>
        <mxCell id="BQGEHq-u3A9qDxq_hTkO-15" style="rounded=0;orthogonalLoop=1;jettySize=auto;html=1;exitX=0.5;exitY=0;exitDx=0;exitDy=0;entryX=1;entryY=0.5;entryDx=0;entryDy=0;sketch=1;curveFitting=1;jiggle=2;shadow=1;" edge="1" parent="1" source="BQGEHq-u3A9qDxq_hTkO-10" target="BQGEHq-u3A9qDxq_hTkO-2">
          <mxGeometry relative="1" as="geometry" />
        </mxCell>
        <mxCell id="BQGEHq-u3A9qDxq_hTkO-10" value="&lt;font face=&quot;Comic Sans MS&quot; style=&quot;font-size: 20px;&quot;&gt;update&lt;/font&gt;" style="rounded=1;whiteSpace=wrap;html=1;sketch=1;curveFitting=1;jiggle=2;fillColor=#ffe6cc;strokeColor=#d79b00;" vertex="1" parent="1">
          <mxGeometry x="460" y="290" width="124" height="40" as="geometry" />
        </mxCell>
        <mxCell id="BQGEHq-u3A9qDxq_hTkO-17" style="rounded=0;orthogonalLoop=1;jettySize=auto;html=1;exitX=0;exitY=0;exitDx=0;exitDy=0;entryX=0.75;entryY=1;entryDx=0;entryDy=0;sketch=1;curveFitting=1;jiggle=2;shadow=1;" edge="1" parent="1" source="BQGEHq-u3A9qDxq_hTkO-11" target="BQGEHq-u3A9qDxq_hTkO-10">
          <mxGeometry relative="1" as="geometry" />
        </mxCell>
        <mxCell id="BQGEHq-u3A9qDxq_hTkO-11" value="&lt;font face=&quot;Comic Sans MS&quot;&gt;&lt;span style=&quot;font-size: 20px;&quot;&gt;offline&lt;/span&gt;&lt;/font&gt;" style="rounded=1;whiteSpace=wrap;html=1;sketch=1;curveFitting=1;jiggle=2;fillColor=#dae8fc;strokeColor=#6c8ebf;" vertex="1" parent="1">
          <mxGeometry x="640" y="380" width="124" height="40" as="geometry" />
        </mxCell>
      </root>
    </mxGraphModel>
  </diagram>
</mxfile>
